<svg xmlns="http://www.w3.org/2000/svg" viewBox="0 0 512 512" role="img" aria-label="All Heart Performance">
  <rect width="512" height="512" rx="96" fill="#F5F2EC"/>
  <g transform="translate(-823.389,-542.022) scale(1.396364)">
    <!-- heart mark -->
    <path fill="#C8202F" fill-rule="evenodd" d="M641 542C644 531 649 520 654 512C658 506 663 501 669 498C681 492 695 488 712 486C729 487 746 495 761 508C766 513 770 518 773 524C777 519 780 514 781 511C785 507 789 503 793 500C797 497 801 494 804 493C816 489 828 486 840 486C853 487 864 491 872 496C879 499 884 504 888 510C895 518 900 528 902 538C905 551 904 565 900 576C898 582 895 586 892 590C890 586 887 582 883 579C886 569 888 558 887 548C887 542 886 537 884 533C881 526 879 523 877 521C874 518 872 515 869 513C866 510 863 508 860 507C856 505 852 504 849 503C842 501 835 501 828 502C818 503 810 506 804 511C796 516 790 522 785 529C781 535 777 542 773 549C769 542 764 534 758 526C754 522 750 518 746 514C742 510 737 508 732 506C728 504 723 503 717 502C712 502 706 502 701 502C695 503 690 505 685 507C681 509 677 512 674 514C669 519 665 524 662 529C658 536 656 541 656 545C655 551 655 558 656 565C658 573 660 579 661 583C665 592 670 600 676 608C685 620 695 631 706 640C712 646 718 650 723 653L713 657L695 648L668 621L653 600L642 573Z"/>
  </g>
</svg>
